<svg xmlns="http://www.w3.org/2000/svg" viewBox="0 0 400 320" fill="none">
  <rect width="400" height="320" fill="#f6fdfb" rx="16"/>
  <circle cx="70" cy="70" r="35" fill="#d4f5e9"/>
  <circle cx="330" cy="250" r="35" fill="#d4f5e9"/>
  <circle cx="340" cy="60" r="12" fill="#28b894" opacity="0.15"/>
  <circle cx="55" cy="260" r="16" fill="#28b894" opacity="0.12"/>
  <!-- 握手 -->
  <path d="M120 170c15-20 45-25 65-10l25 20c8 6 20 5 28-2l35-30c8-7 10-19 3-27-7-8-19-10-27-3l-30 25c-5 4-12 5-18 2l-10-6" stroke="#28b894" stroke-width="12" stroke-linecap="round" stroke-linejoin="round"/>
  <path d="M280 170c-15-20-45-25-65-10l-25 20c-8 6-20 5-28-2l-35-30c-8-7-10-19-3-27 7-8 19-10 27-3l30 25c5 4 12 5 18 2l10-6" stroke="#28b894" stroke-width="12" stroke-linecap="round" stroke-linejoin="round" opacity="0.55"/>
  <!-- 连接环 -->
  <circle cx="200" cy="160" r="55" stroke="#28b894" stroke-width="2" stroke-dasharray="8 6" opacity="0.35"/>
  <!-- 机构/建筑简形 -->
  <rect x="152" y="220" width="18" height="28" rx="3" fill="#28b894" opacity="0.25"/>
  <rect x="178" y="210" width="18" height="38" rx="3" fill="#28b894" opacity="0.35"/>
  <rect x="204" y="220" width="18" height="28" rx="3" fill="#28b894" opacity="0.25"/>
  <rect x="230" y="215" width="18" height="33" rx="3" fill="#28b894" opacity="0.35"/>
</svg>